<?xml version="1.0" encoding="UTF-8"?>
<svg width="46px" height="46px" viewBox="0 0 46 46" version="1.1" xmlns="http://www.w3.org/2000/svg" xmlns:xlink="http://www.w3.org/1999/xlink">
    <!-- Generator: Sketch 49.3 (51167) - http://www.bohemiancoding.com/sketch -->
    <title>Group 15</title>
    <desc>Created with Sketch.</desc>
    <defs>
        <polygon id="path-1" points="0 0 24 0 24 19.2 0 19.2"></polygon>
    </defs>
    <g id="Page-1" stroke="none" stroke-width="1" fill="none" fill-rule="evenodd">
        <g id="Desktop-1280" transform="translate(-1112.000000, -4305.000000)">
            <g id="Group-15" transform="translate(1112.000000, 4305.000000)">
                <g id="Group-4-Copy" fill="#F3DBD6">
                    <circle id="Oval-Copy-4" cx="23" cy="23" r="23"></circle>
                </g>
                <g id="Page-1" transform="translate(11.000000, 13.000000)">
                    <mask id="mask-2" fill="white">
                        <use xlink:href="#path-1"></use>
                    </mask>
                    <g id="Clip-2"></g>
                    <path d="M2.84308456,3.91704013 C2.87285508,3.6218864 2.75873475,3.32673267 2.54041761,3.12662845 L0.302666942,0.405211047 L0.302666942,0 L7.25904486,0 L12.6375853,11.8911933 L17.366136,0 L24,0 L24,0.405211047 L22.0847633,2.25617509 C21.9210254,2.38124023 21.8366756,2.59134966 21.8714079,2.79645649 L21.8714079,16.4035435 C21.8366756,16.6086503 21.9210254,16.8187598 22.0847633,16.9438249 L23.9553442,18.794789 L23.9553442,19.2 L14.5428985,19.2 L14.5428985,18.794789 L16.482944,16.8988015 C16.6714906,16.7087024 16.6714906,16.6486712 16.6714906,16.3585201 L16.6714906,5.36279312 L11.2780649,19.1649818 L10.5486872,19.1649818 L4.27703122,5.36279312 L4.27703122,14.6126107 C4.22245193,15.002814 4.35145751,15.3930172 4.62435394,15.6731631 L7.14492454,18.7547681 L7.14492454,19.1599792 L0,19.1599792 L0,18.7597707 L2.5205706,15.6731631 C2.78850527,15.3930172 2.9125491,14.9978114 2.84308456,14.6126107 L2.84308456,3.91704013 Z" id="Fill-1" fill-opacity="0.822605299" fill="#0F0C0C" mask="url(#mask-2)"></path>
                </g>
            </g>
        </g>
    </g>
</svg>