<?xml version="1.0" encoding="UTF-8"?>
<svg width="46px" height="46px" viewBox="0 0 46 46" version="1.1" xmlns="http://www.w3.org/2000/svg" xmlns:xlink="http://www.w3.org/1999/xlink">
    <!-- Generator: Sketch 49.3 (51167) - http://www.bohemiancoding.com/sketch -->
    <title>Group 14</title>
    <desc>Created with Sketch.</desc>
    <defs></defs>
    <g id="Page-1" stroke="none" stroke-width="1" fill="none" fill-rule="evenodd">
        <g id="Desktop-1280" transform="translate(-1041.000000, -4305.000000)">
            <g id="Group-14" transform="translate(1041.000000, 4305.000000)">
                <g id="Group-4-Copy" fill="#F3DBD6">
                    <circle id="Oval-Copy-4" cx="23" cy="23" r="23"></circle>
                </g>
                <path d="M35.9943442,33 L30.7513812,33 L30.7513812,24.812313 C30.7513812,22.8609893 30.7117903,20.3585712 28.0196109,20.3585712 C25.2878405,20.3585712 24.8693084,22.4785973 24.8693084,24.6717277 L24.8693084,33 L19.6206897,33 L19.6206897,16.1803765 L24.6600424,16.1803765 L24.6600424,18.4747284 L24.7335683,18.4747284 C25.4348924,17.1532267 27.1486116,15.7586207 29.705051,15.7586207 C35.0215398,15.7586207 36,19.2395123 36,23.7607351 L36,33 L35.9943442,33 Z M14.0172414,14.0344828 C12.3515895,14.0344828 11,12.6612332 11,11.0032856 C11,9.34533797 12.3515895,8 14.0172414,8 C15.6828932,8 17.0344828,9.34533797 17.0344828,11.0032856 C17.0344828,12.6612332 15.6828932,14.0344828 14.0172414,14.0344828 Z M11,33 L16.1724138,33 L16.1724138,16.6206897 L11,16.6206897 L11,33 Z" id="Fill-1" fill-opacity="0.822605299" fill="#0F0C0C"></path>
            </g>
        </g>
    </g>
</svg>