<?xml version="1.0" encoding="UTF-8"?>
<svg width="46px" height="46px" viewBox="0 0 46 46" version="1.1" xmlns="http://www.w3.org/2000/svg" xmlns:xlink="http://www.w3.org/1999/xlink">
    <!-- Generator: Sketch 49.3 (51167) - http://www.bohemiancoding.com/sketch -->
    <title>Group 13</title>
    <desc>Created with Sketch.</desc>
    <defs>
        <polygon id="path-1" points="0 0 26 0 26 19.8095238 0 19.8095238"></polygon>
    </defs>
    <g id="Page-1" stroke="none" stroke-width="1" fill="none" fill-rule="evenodd">
        <g id="Desktop-1280" transform="translate(-971.000000, -4305.000000)">
            <g id="Group-13" transform="translate(971.000000, 4305.000000)">
                <g id="Group-4" fill="#F3DBD6">
                    <circle id="Oval-Copy-4" cx="23" cy="23" r="23"></circle>
                </g>
                <g id="Page-1" transform="translate(10.000000, 13.000000)">
                    <mask id="mask-2" fill="white">
                        <use xlink:href="#path-1"></use>
                    </mask>
                    <g id="Clip-2"></g>
                    <path d="M2.4375,17.3333333 L2.4375,7.75862698 C3.60110156,8.70014683 5.25123828,10.0214008 7.76638281,12.0221111 C8.87630859,12.9096706 10.8200625,14.8690079 13,14.8570913 C15.1692227,14.8690079 17.0883477,12.9380952 18.2331602,12.0225754 C20.7482539,10.0218651 22.3988477,8.70025 23.5625,7.75862698 L23.5625,17.3333333 L2.4375,17.3333333 Z M23.5625,2.47619048 L23.5625,4.58121032 C22.4238828,5.52314286 20.6086563,6.98780952 16.7280039,10.0747421 C15.8727969,10.758119 14.1787344,12.3998849 13,12.380746 C11.8214688,12.4000913 10.1268477,10.7578611 9.27199609,10.0747421 C5.39195313,6.98827381 3.57626953,5.52329762 2.4375,4.58121032 L2.4375,2.47619048 L23.5625,2.47619048 Z M23.5625,0 L2.4375,0 C1.09128906,0 0,1.10861111 0,2.47619048 L0,17.3333333 C0,18.7009643 1.09128906,19.8095238 2.4375,19.8095238 L23.5625,19.8095238 C24.9087109,19.8095238 26,18.7009643 26,17.3333333 L26,2.47619048 C26,1.10861111 24.9087109,0 23.5625,0 Z" id="Fill-1" fill-opacity="0.822605299" fill="#0F0C0C" mask="url(#mask-2)"></path>
                </g>
            </g>
        </g>
    </g>
</svg>