<?xml version="1.0" encoding="UTF-8"?>
<svg width="46px" height="46px" viewBox="0 0 46 46" version="1.1" xmlns="http://www.w3.org/2000/svg" xmlns:xlink="http://www.w3.org/1999/xlink">
    <!-- Generator: Sketch 49.3 (51167) - http://www.bohemiancoding.com/sketch -->
    <title>Group 16</title>
    <desc>Created with Sketch.</desc>
    <defs>
        <polygon id="path-1" points="0 0 31 0 31 19.6585366 0 19.6585366"></polygon>
    </defs>
    <g id="Page-1" stroke="none" stroke-width="1" fill="none" fill-rule="evenodd">
        <g id="Desktop-1280" transform="translate(-1187.000000, -4305.000000)">
            <g id="Group-16" transform="translate(1187.000000, 4305.000000)">
                <g id="Group-4-Copy" fill="#F3DBD6">
                    <circle id="Oval-Copy-4" cx="23" cy="23" r="23"></circle>
                </g>
                <g id="Page-1" transform="translate(8.000000, 12.000000)">
                    <mask id="mask-2" fill="white">
                        <use xlink:href="#path-1"></use>
                    </mask>
                    <g id="Clip-2"></g>
                    <path d="M21.0111111,10.8119229 C21.1348958,8.97727135 22.3403976,7.82857259 24.1595486,7.82857259 C26.0647031,7.82857259 27.0226892,8.96093914 27.1841476,10.8119229 L21.0111111,10.8119229 Z M31,12.5104727 C31,8.37842365 28.6103628,4.93232737 24.2778976,4.93232737 C20.0692708,4.93232737 17.2114045,8.1334405 17.2114045,12.3253744 C17.2114045,16.6751863 19.9185226,19.6585366 24.2778976,19.6585366 C27.5770833,19.6585366 29.7136615,18.1559733 30.7416667,14.9603042 L27.3940972,14.9603042 C27.0334531,16.15261 25.5480903,16.7840677 24.3963003,16.7840677 C22.1736111,16.7840677 21.0056753,15.4666027 21.0056753,13.22909 L30.9677083,13.22909 C30.9838542,13.000439 31,12.7554559 31,12.5104727 Z M20.2361111,2.91257742 L27.9699653,2.91257742 L27.9699653,1.01259701 L20.2361111,1.01259701 L20.2361111,2.91257742 Z M8.67569444,16.0165082 L4.19253472,16.0165082 L4.19253472,10.7030415 L8.76175174,10.7030415 C10.6078125,10.7030415 11.7756406,11.4815435 11.7756406,13.4577954 C11.7756406,15.406718 10.3817708,16.0165082 8.67569444,16.0165082 Z M4.19253472,3.29366232 L8.12673611,3.29366232 C9.6390625,3.29366232 11.0006944,3.72374385 11.0006944,5.49851065 C11.0006944,7.1371757 9.94045139,7.79590817 8.44427083,7.79590817 L4.19253472,7.79590817 L4.19253472,3.29366232 Z M12.4861111,8.80850518 C14.1975156,7.98100655 15.0909722,6.72887046 15.0909722,4.77989342 C15.0909722,0.936380031 12.2600156,0 8.99322917,0 L0,0 L0,19.2937839 L9.24612674,19.2937839 C12.7121528,19.2937839 15.9682292,17.6115663 15.9682292,13.6918359 C15.9682292,11.2692248 14.8326389,9.47812578 12.4861111,8.80850518 Z" id="Fill-1" fill-opacity="0.822605299" fill="#0F0C0C" mask="url(#mask-2)"></path>
                </g>
            </g>
        </g>
    </g>
</svg>